<?xml version="1.0" encoding="UTF-8" standalone="no"?>
<!-- Created with Inkscape (http://www.inkscape.org/) -->
<svg
   xmlns:svg="http://www.w3.org/2000/svg"
   xmlns="http://www.w3.org/2000/svg"
   version="1.0"
   width="58"
   height="59"
   id="svg2">
  <defs
     id="defs4" />
  <g
     transform="translate(-308.14285,-494.29074)"
     id="layer1">
    <path
       d="M 11.6875,1.8125 C 8.84474,1.81255 6.4803099,2.76972 4.46875,4.78125 C 2.45716,6.79288 1.46874,9.15732 1.46875,12 C 1.46874,14.81187 2.4411999,17.159969 4.46875,19.1875 C 6.49627,21.21507 8.8756699,22.187539 11.6875,22.1875 L 18.375,22.1875 L 19.0625,22.1875 L 19.0625,22.875 L 19.0625,36.25 L 19.0625,36.9375 L 18.375,36.9375 L 11.6875,36.9375 C 8.84475,36.93752 6.4803199,37.894701 4.46875,39.90625 C 2.45716,41.91785 1.46874,44.282301 1.46875,47.125 C 1.46874,49.93683 2.4412099,52.285001 4.46875,54.3125 C 6.49627,56.34004 8.8756599,57.343751 11.6875,57.34375 C 14.49931,57.34375 16.847451,56.340061 18.875,54.3125 C 20.90251,52.28497 21.874961,49.936861 21.875,47.125 L 21.875,40.40625 L 21.875,39.75 L 22.5625,39.75 L 35.9375,39.75 L 36.59375,39.75 L 36.59375,40.40625 L 36.59375,47.125 C 36.59371,49.93683 37.597419,52.285001 39.625,54.3125 C 41.65249,56.34003 44.000619,57.343751 46.8125,57.34375 C 49.65518,57.34375 52.019609,56.355361 54.03125,54.34375 C 56.04277,52.33217 56.999949,49.967771 57,47.125 C 56.99994,44.31211 56.013689,41.964701 54,39.9375 C 51.98798,37.91214 49.654109,36.937501 46.8125,36.9375 L 40.125,36.9375 L 39.46875,36.9375 L 39.46875,36.25 L 39.46875,22.875 L 39.46875,22.1875 L 40.125,22.1875 L 46.8125,22.1875 C 49.65517,22.18753 52.019609,21.230339 54.03125,19.21875 C 56.04277,17.20721 56.999949,14.84278 57,12 C 56.99994,9.15731 56.042779,6.79287 54.03125,4.78125 C 52.01961,2.76972 49.655179,1.81257 46.8125,1.8125 C 43.96971,1.81255 41.605269,2.76972 39.59375,4.78125 C 37.58213,6.79288 36.593719,9.15732 36.59375,12 L 36.59375,18.65625 L 36.59375,19.34375 L 35.9375,19.34375 L 22.5625,19.34375 L 21.875,19.34375 L 21.875,18.65625 L 21.875,12 C 21.87497,9.15837 20.900361,6.79325 18.875,4.78125 C 16.8478,2.76755 14.50039,1.81257 11.6875,1.8125 z M 11.6875,4.625 C 13.68924,4.62506 15.446901,5.35323 16.875,6.78125 C 18.30305,8.20938 19.062461,9.99828 19.0625,12 L 19.0625,18.65625 L 19.0625,19.34375 L 18.375,19.34375 L 11.6875,19.34375 C 9.68744,19.34379 7.8974199,18.600849 6.46875,17.1875 C 5.03884,15.77302 4.2812299,14.00181 4.28125,12 C 4.28124,9.97409 5.0206499,8.1669 6.4375,6.75 C 7.85435,5.33319 9.6615599,4.62507 11.6875,4.625 z M 46.8125,4.625 C 48.83839,4.62506 50.614329,5.33321 52.03125,6.75 C 53.44804,8.1669 54.187449,9.9741 54.1875,12 C 54.18744,14.0018 53.429819,15.773019 52,17.1875 C 50.57127,18.60085 48.812489,19.343769 46.8125,19.34375 L 40.125,19.34375 L 39.46875,19.34375 L 39.46875,18.65625 L 39.46875,12 C 39.4687,10 40.180389,8.20997 41.59375,6.78125 C 43.00822,5.35141 44.810699,4.62507 46.8125,4.625 z M 21.875,22.1875 L 22.5625,22.1875 L 35.9375,22.1875 L 36.59375,22.1875 L 36.59375,22.875 L 36.59375,36.25 L 36.59375,36.9375 L 35.9375,36.9375 L 22.5625,36.9375 L 21.875,36.9375 L 21.875,36.25 L 21.875,22.875 L 21.875,22.1875 z M 11.6875,39.75 L 18.375,39.75 L 19.0625,39.75 L 19.0625,40.40625 L 19.0625,47.125 L 19.0625,47.375 L 19,47.46875 C 18.91388,49.30244 18.226691,50.960781 16.875,52.3125 C 15.43562,53.75187 13.66522,54.531291 11.6875,54.53125 C 9.70976,54.53125 7.9081099,53.751851 6.46875,52.3125 C 5.02937,50.87314 4.2812299,49.102751 4.28125,47.125 C 4.28124,45.14729 5.0293799,43.376871 6.46875,41.9375 C 7.90811,40.49815 9.7097699,39.750021 11.6875,39.75 z M 39.46875,39.75 L 40.125,39.75 L 46.8125,39.75 C 48.81594,39.75002 50.603709,40.494691 52.03125,41.9375 C 53.45581,43.37745 54.187449,45.149071 54.1875,47.125 C 54.18744,49.10096 53.455789,50.872561 52.03125,52.3125 C 50.60372,53.75532 48.815959,54.531291 46.8125,54.53125 C 44.83473,54.53125 43.050729,53.753601 41.625,52.3125 C 40.20033,50.87257 39.468719,49.100991 39.46875,47.125 L 39.46875,40.40625 L 39.46875,39.75 z"
       transform="translate(308.14285,494.29074)"
       id="text2396"
       style="font-size:86.99937439px;font-style:normal;font-variant:normal;font-weight:normal;font-stretch:normal;text-align:center;text-anchor:middle;fill:#000000;fill-opacity:1;stroke:none;stroke-width:1.35000002;stroke-linecap:butt;stroke-linejoin:miter;stroke-miterlimit:4;stroke-opacity:1;font-family:Arial Unicode MS;-inkscape-font-specification:Arial Unicode MS" />
  </g>
</svg>
